<svg width="24" height="24" viewBox="0 0 24 24" fill="none" xmlns="http://www.w3.org/2000/svg">
<g filter="url(#filter0_d_2_2)">
<rect x="1" y="1" width="21" height="21" fill="#FF4C3B"/>
<rect x="1.5" y="1.5" width="20" height="20" stroke="black"/>
</g>
<path d="M7.76859 14V5.6H9.68859L11.9206 13.364H12.0766L14.3086 5.6H16.2286V14H15.2566V6.26H15.0886L12.8686 14H11.1286L8.90859 6.26H8.74059V14H7.76859Z" fill="#FFF3E9"/>
<path d="M6.17081 19V16.0909H8.09695V16.598H6.78587V17.2912H7.96911V17.7983H6.78587V19H6.17081ZM9.32493 19.0426C9.10429 19.0426 8.91347 18.9957 8.75249 18.902C8.59245 18.8073 8.46887 18.6757 8.38175 18.5071C8.29463 18.3376 8.25107 18.1411 8.25107 17.9176C8.25107 17.6922 8.29463 17.4953 8.38175 17.3267C8.46887 17.1572 8.59245 17.0256 8.75249 16.9318C8.91347 16.8371 9.10429 16.7898 9.32493 16.7898C9.54557 16.7898 9.73591 16.8371 9.89595 16.9318C10.0569 17.0256 10.181 17.1572 10.2681 17.3267C10.3552 17.4953 10.3988 17.6922 10.3988 17.9176C10.3988 18.1411 10.3552 18.3376 10.2681 18.5071C10.181 18.6757 10.0569 18.8073 9.89595 18.902C9.73591 18.9957 9.54557 19.0426 9.32493 19.0426ZM9.32777 18.5739C9.42815 18.5739 9.51196 18.5455 9.57919 18.4886C9.64643 18.4309 9.69709 18.3523 9.73118 18.2528C9.76622 18.1534 9.78374 18.0402 9.78374 17.9134C9.78374 17.7865 9.76622 17.6733 9.73118 17.5739C9.69709 17.4744 9.64643 17.3958 9.57919 17.3381C9.51196 17.2803 9.42815 17.2514 9.32777 17.2514C9.22644 17.2514 9.14122 17.2803 9.07209 17.3381C9.00391 17.3958 8.9523 17.4744 8.91726 17.5739C8.88317 17.6733 8.86612 17.7865 8.86612 17.9134C8.86612 18.0402 8.88317 18.1534 8.91726 18.2528C8.9523 18.3523 9.00391 18.4309 9.07209 18.4886C9.14122 18.5455 9.22644 18.5739 9.32777 18.5739ZM10.7923 19V16.8182H11.3789V17.1989H11.4016C11.4414 17.0634 11.5082 16.9612 11.6019 16.892C11.6957 16.822 11.8036 16.7869 11.9258 16.7869C11.9561 16.7869 11.9888 16.7888 12.0238 16.7926C12.0588 16.7964 12.0896 16.8016 12.1161 16.8082V17.3452C12.0877 17.3366 12.0484 17.3291 11.9982 17.3224C11.948 17.3158 11.9021 17.3125 11.8604 17.3125C11.7714 17.3125 11.6919 17.3319 11.6218 17.3707C11.5527 17.4086 11.4978 17.4616 11.457 17.5298C11.4173 17.598 11.3974 17.6766 11.3974 17.7656V19H10.7923ZM12.429 19V16.8182H13.0057V17.2031H13.0312C13.0767 17.0753 13.1525 16.9744 13.2585 16.9006C13.3646 16.8267 13.4915 16.7898 13.6392 16.7898C13.7888 16.7898 13.9162 16.8272 14.0213 16.902C14.1264 16.9759 14.1965 17.0762 14.2315 17.2031H14.2543C14.2988 17.0781 14.3793 16.9782 14.4957 16.9034C14.6132 16.8277 14.7519 16.7898 14.9119 16.7898C15.1155 16.7898 15.2808 16.8546 15.4077 16.9844C15.5355 17.1132 15.5994 17.2959 15.5994 17.5327V19H14.9957V17.652C14.9957 17.5308 14.9635 17.4399 14.8991 17.3793C14.8348 17.3187 14.7543 17.2884 14.6577 17.2884C14.5478 17.2884 14.4621 17.3234 14.4006 17.3935C14.339 17.4626 14.3082 17.554 14.3082 17.6676V19H13.7216V17.6392C13.7216 17.5322 13.6908 17.447 13.6293 17.3835C13.5687 17.3201 13.4886 17.2884 13.3892 17.2884C13.322 17.2884 13.2614 17.3054 13.2074 17.3395C13.1544 17.3726 13.1122 17.4195 13.081 17.4801C13.0497 17.5398 13.0341 17.6098 13.0341 17.6903V19H12.429ZM17.8928 17.4403L17.3388 17.4744C17.3293 17.4271 17.3089 17.3845 17.2777 17.3466C17.2464 17.3078 17.2053 17.277 17.1541 17.2543C17.1039 17.2306 17.0438 17.2188 16.9737 17.2188C16.88 17.2188 16.8009 17.2386 16.7365 17.2784C16.6721 17.3172 16.6399 17.3693 16.6399 17.4347C16.6399 17.4867 16.6607 17.5308 16.7024 17.5668C16.7441 17.6027 16.8156 17.6316 16.9169 17.6534L17.3118 17.733C17.5239 17.7765 17.6821 17.8466 17.7862 17.9432C17.8904 18.0398 17.9425 18.1667 17.9425 18.3239C17.9425 18.4669 17.9003 18.5923 17.8161 18.7003C17.7327 18.8082 17.6181 18.8925 17.4723 18.9531C17.3274 19.0128 17.1603 19.0426 16.9709 19.0426C16.6821 19.0426 16.4519 18.9825 16.2805 18.8622C16.1101 18.741 16.0102 18.5762 15.9808 18.3679L16.576 18.3366C16.594 18.4247 16.6375 18.492 16.7067 18.5384C16.7758 18.5838 16.8643 18.6065 16.9723 18.6065C17.0784 18.6065 17.1636 18.5862 17.228 18.5455C17.2933 18.5038 17.3265 18.4503 17.3274 18.3849C17.3265 18.33 17.3033 18.285 17.2578 18.25C17.2124 18.214 17.1423 18.1866 17.0476 18.1676L16.6697 18.0923C16.4567 18.0497 16.2981 17.9759 16.1939 17.8707C16.0907 17.7656 16.0391 17.6316 16.0391 17.4688C16.0391 17.3286 16.0769 17.2079 16.1527 17.1065C16.2294 17.0052 16.3369 16.9271 16.4751 16.8722C16.6143 16.8172 16.7772 16.7898 16.9638 16.7898C17.2393 16.7898 17.4562 16.848 17.6143 16.9645C17.7734 17.081 17.8662 17.2396 17.8928 17.4403Z" fill="white"/>
<defs>
<filter id="filter0_d_2_2" x="1" y="1" width="22" height="22" filterUnits="userSpaceOnUse" color-interpolation-filters="sRGB">
<feFlood flood-opacity="0" result="BackgroundImageFix"/>
<feColorMatrix in="SourceAlpha" type="matrix" values="0 0 0 0 0 0 0 0 0 0 0 0 0 0 0 0 0 0 127 0" result="hardAlpha"/>
<feOffset dx="1" dy="1"/>
<feComposite in2="hardAlpha" operator="out"/>
<feColorMatrix type="matrix" values="0 0 0 0 0 0 0 0 0 0 0 0 0 0 0 0 0 0 1 0"/>
<feBlend mode="normal" in2="BackgroundImageFix" result="effect1_dropShadow_2_2"/>
<feBlend mode="normal" in="SourceGraphic" in2="effect1_dropShadow_2_2" result="shape"/>
</filter>
</defs>
</svg>
