<svg width="250" height="250" viewBox="0 0 250 250" fill="none" xmlns="http://www.w3.org/2000/svg">

<rect x="20" y="20" width="220" height="220" fill="black"/>
<rect x="10" y="10" width="220" height="220" fill="#FF4C3B"/>
<rect x="15" y="15" width="210" height="210" stroke="black" stroke-width="10"/>

<path d="M67.1074 142V37H91.1074L119.007 134.05H120.957L148.857 37H172.857V142H160.707V45.25H158.607L130.857 142H109.107L81.3574 45.25H79.2574V142H67.1074Z" fill="#FFF3E9"/>
<path d="M61.7081 200V170.909H80.9695V175.98H67.8587V182.912H79.6911V187.983H67.8587V200H61.7081ZM93.2493 200.426C91.0429 200.426 89.1347 199.957 87.5249 199.02C85.9245 198.073 84.6887 196.757 83.8175 195.071C82.9463 193.376 82.5107 191.411 82.5107 189.176C82.5107 186.922 82.9463 184.953 83.8175 183.267C84.6887 181.572 85.9245 180.256 87.5249 179.318C89.1347 178.371 91.0429 177.898 93.2493 177.898C95.4557 177.898 97.3591 178.371 98.9595 179.318C100.569 180.256 101.81 181.572 102.681 183.267C103.552 184.953 103.988 186.922 103.988 189.176C103.988 191.411 103.552 193.376 102.681 195.071C101.81 196.757 100.569 198.073 98.9595 199.02C97.3591 199.957 95.4557 200.426 93.2493 200.426ZM93.2777 195.739C94.2815 195.739 95.1196 195.455 95.7919 194.886C96.4643 194.309 96.9709 193.523 97.3118 192.528C97.6622 191.534 97.8374 190.402 97.8374 189.134C97.8374 187.865 97.6622 186.733 97.3118 185.739C96.9709 184.744 96.4643 183.958 95.7919 183.381C95.1196 182.803 94.2815 182.514 93.2777 182.514C92.2644 182.514 91.4122 182.803 90.7209 183.381C90.0391 183.958 89.523 184.744 89.1726 185.739C88.8317 186.733 88.6612 187.865 88.6612 189.134C88.6612 190.402 88.8317 191.534 89.1726 192.528C89.523 193.523 90.0391 194.309 90.7209 194.886C91.4122 195.455 92.2644 195.739 93.2777 195.739ZM107.923 200V178.182H113.789V181.989H114.016C114.414 180.634 115.082 179.612 116.019 178.92C116.957 178.22 118.036 177.869 119.258 177.869C119.561 177.869 119.888 177.888 120.238 177.926C120.588 177.964 120.896 178.016 121.161 178.082V183.452C120.877 183.366 120.484 183.291 119.982 183.224C119.48 183.158 119.021 183.125 118.604 183.125C117.714 183.125 116.919 183.319 116.218 183.707C115.527 184.086 114.978 184.616 114.57 185.298C114.173 185.98 113.974 186.766 113.974 187.656V200H107.923ZM124.29 200V178.182H130.057V182.031H130.312C130.767 180.753 131.525 179.744 132.585 179.006C133.646 178.267 134.915 177.898 136.392 177.898C137.888 177.898 139.162 178.272 140.213 179.02C141.264 179.759 141.965 180.762 142.315 182.031H142.543C142.988 180.781 143.793 179.782 144.957 179.034C146.132 178.277 147.519 177.898 149.119 177.898C151.155 177.898 152.808 178.546 154.077 179.844C155.355 181.132 155.994 182.959 155.994 185.327V200H149.957V186.52C149.957 185.308 149.635 184.399 148.991 183.793C148.348 183.187 147.543 182.884 146.577 182.884C145.478 182.884 144.621 183.234 144.006 183.935C143.39 184.626 143.082 185.54 143.082 186.676V200H137.216V186.392C137.216 185.322 136.908 184.47 136.293 183.835C135.687 183.201 134.886 182.884 133.892 182.884C133.22 182.884 132.614 183.054 132.074 183.395C131.544 183.726 131.122 184.195 130.81 184.801C130.497 185.398 130.341 186.098 130.341 186.903V200H124.29ZM178.928 184.403L173.388 184.744C173.293 184.271 173.089 183.845 172.777 183.466C172.464 183.078 172.053 182.77 171.541 182.543C171.039 182.306 170.438 182.188 169.737 182.188C168.8 182.188 168.009 182.386 167.365 182.784C166.721 183.172 166.399 183.693 166.399 184.347C166.399 184.867 166.607 185.308 167.024 185.668C167.441 186.027 168.156 186.316 169.169 186.534L173.118 187.33C175.239 187.765 176.821 188.466 177.862 189.432C178.904 190.398 179.425 191.667 179.425 193.239C179.425 194.669 179.003 195.923 178.161 197.003C177.327 198.082 176.181 198.925 174.723 199.531C173.274 200.128 171.603 200.426 169.709 200.426C166.821 200.426 164.519 199.825 162.805 198.622C161.101 197.41 160.102 195.762 159.808 193.679L165.76 193.366C165.94 194.247 166.375 194.92 167.067 195.384C167.758 195.838 168.643 196.065 169.723 196.065C170.784 196.065 171.636 195.862 172.28 195.455C172.933 195.038 173.265 194.503 173.274 193.849C173.265 193.3 173.033 192.85 172.578 192.5C172.124 192.14 171.423 191.866 170.476 191.676L166.697 190.923C164.567 190.497 162.981 189.759 161.939 188.707C160.907 187.656 160.391 186.316 160.391 184.688C160.391 183.286 160.769 182.079 161.527 181.065C162.294 180.052 163.369 179.271 164.751 178.722C166.143 178.172 167.772 177.898 169.638 177.898C172.393 177.898 174.562 178.48 176.143 179.645C177.734 180.81 178.662 182.396 178.928 184.403Z" fill="#FFF3E9"/>

</svg>
